<?xml version="1.0" encoding="UTF-8" standalone="no"?>
<svg
   xmlns:dc="http://purl.org/dc/elements/1.1/"
   xmlns:cc="http://creativecommons.org/ns#"
   xmlns:rdf="http://www.w3.org/1999/02/22-rdf-syntax-ns#"
   xmlns:svg="http://www.w3.org/2000/svg"
   xmlns="http://www.w3.org/2000/svg"
   xmlns:sodipodi="http://sodipodi.sourceforge.net/DTD/sodipodi-0.dtd"
   xmlns:inkscape="http://www.inkscape.org/namespaces/inkscape"
   version="1.1"
   id="svg2"
   xml:space="preserve"
   width="336"
   height="288"
   viewBox="0 0 336 288"
   sodipodi:docname="UCF Polo shirt logo.ai"><metadata
     id="metadata8"><rdf:RDF><cc:Work
         rdf:about=""><dc:format>image/svg+xml</dc:format><dc:type
           rdf:resource="http://purl.org/dc/dcmitype/StillImage" /></cc:Work></rdf:RDF></metadata><defs
     id="defs6" /><sodipodi:namedview
     pagecolor="#ffffff"
     bordercolor="#666666"
     borderopacity="1"
     objecttolerance="10"
     gridtolerance="10"
     guidetolerance="10"
     inkscape:pageopacity="0"
     inkscape:pageshadow="2"
     inkscape:window-width="640"
     inkscape:window-height="480"
     id="namedview4" /><g
     id="g10"
     inkscape:groupmode="layer"
     inkscape:label="UCF Polo shirt logo"
     transform="matrix(1.3333333,0,0,-1.3333333,0,288)"><g
       id="g12"
       transform="scale(1,-1)"><path
         d="m 115.13818,-102.7793 c 0,0 17.29932,-30.99804 27.40088,-44.35498 10.10547,-13.35791 33.73828,-25.85986 33.73828,-25.85986 0,0 -2.05468,-5.13916 -1.19824,-11.98828 0.85645,-6.8501 0.68457,-10.10596 2.56738,-10.10596 1.88575,0 2.56836,3.59815 4.28321,5.8252 1.71191,2.22607 4.62304,2.56787 6.67676,6.50683 2.05664,3.93897 6.16601,10.79004 6.68066,10.79004 0.51269,0 10.27441,2.91113 11.30273,5.82178 1.02735,2.91113 3.25489,6.67822 4.62305,9.59033 1.37109,2.91113 13.70117,11.4751 16.95508,15.0708 3.25391,3.59619 11.64551,12.50098 11.81641,15.24219 0.17285,2.73975 -1.19922,4.28076 -1.19922,7.70703 0,3.4248 -0.6836,4.96582 -2.73926,6.33594 -2.05567,1.37011 -1.71192,3.76709 -3.76758,2.05517 -2.05566,-1.71338 -8.90527,0.68457 -10.44727,-0.68506 -1.54101,-1.37011 -9.93261,-9.41894 -13.1875,-9.7622 -3.25195,-0.34278 -19.69335,-2.39697 -19.69335,-2.39697 0,0 -0.5127,1.37011 1.88476,7.70703 2.39746,6.33496 8.06055,14.3916 11.47266,25.34668 6.2959,20.2041 -14.79981,39.38867 -23.7666,41.68457 -7.05372,1.80566 -17.84668,-4.86621 -17.84668,-4.86621 0,0 -47.26221,-34.61817 -46.9253,-35.10645 0.33741,-0.48926 1.36914,-14.55762 1.36914,-14.55762"
         style="fill:#ba9458;fill-opacity:1;fill-rule:nonzero;stroke:none"
         id="path14" /><path
         d="m 54.72852,-175.87354 c 0,0 -7.87696,7.87696 -9.24805,9.93311 -1.36914,2.05518 -3.08203,4.79492 -3.08203,4.79492 0,0 -8.90576,-1.37012 -16.09912,4.10987 -7.19287,5.48095 -6.50782,10.27636 -6.50782,10.27636 0,0 1.02784,4.79492 1.02784,4.79492 0,0 -7.87793,4.11084 -10.95996,13.01465 -3.08301,8.90625 -4.10987,10.27637 -4.10987,10.27637 0,0 -3.76806,1.71289 -3.76806,1.71289 0,0 -0.55518,11.05615 0.92089,15.18701 1.50537,4.20801 2.84034,6.56153 5.51416,9.48242 4.06104,4.43457 11.42676,5.69532 11.42676,5.69532 0,0 11.55518,10.77148 11.55518,10.77148 0,0 -11.65088,46.12012 -11.65088,46.12012 0,0 21.09375,16.98828 21.09375,16.98828 0,0 34.82617,0 34.82617,0 0,0 14.87305,-9.73438 14.87305,-9.73438 0,0 9.90381,9.39258 9.90381,9.39258 0,0 32.30761,0.15625 32.30761,0.15625 0,0 6.55078,-4.28711 6.55078,-4.28711 0,0 -1.31835,4.28711 -1.31835,4.28711 0,0 42.86718,-0.14453 42.86718,-0.14453 0,0 7.79688,-25.63281 7.79688,-25.63281 0,0 22.35547,0 22.35547,0 0,0 6.8164,-24.36719 6.8164,-24.36719 0,0 5.36328,-0.20996 5.36328,-0.20996 0,0 6.18555,-24.4541 6.18555,-24.4541 0,0 5.60449,0.09082 5.60449,0.09082 0,0 17.02637,-16.24414 17.02637,-16.24414 0,0 -49.97363,-0.92578 -49.97363,-0.92578 0,0 -1.42383,-3.69824 -4.6416,-6.97754 -3.45215,-3.51807 -2.91993,-5.75195 -2.91993,-5.75195 0,0 12.24219,-0.28516 15.66797,4.16699 3.42578,4.45312 7.72266,7.1582 11.83203,7.5 4.11133,0.34277 6.25,0.34375 9.33399,0 3.08203,-0.3418 2.91015,1.23926 6.33398,-1.5 3.42383,-2.74073 8.21875,-6.18604 6.84766,-9.26709 -1.36914,-3.08301 1.55273,-2.70069 -0.33984,-10.61865 -3.08008,-12.86817 -18.83985,-22.26319 -25.00586,-28.08594 -6.16602,-5.82324 -3.42383,-9.93213 -9.9336,-15.41309 -6.50781,-5.47998 -10.61719,-6.16504 -11.98633,-8.56201 -1.36914,-2.39795 -4.90039,-7.63037 -9.35351,-11.39697 -4.45313,-3.76612 -3.49024,-7.93115 -6.71485,-8.50635 -7.78515,-1.38574 -7.9707,7.85205 -8.65625,8.88037 -0.68554,1.02783 -5.07421,13.07666 -5.07421,13.07666 0,0 -2.74024,14.38623 -8.9043,16.09815 -6.16602,1.71289 -25.95899,24.5708 -25.95899,24.5708 0,0 -16.17138,25.77929 -16.17138,25.77929 0,0 -11.7168,0.0249 -11.7168,-2.37207 0,-2.39892 -0.6709,-7.16406 -2.31201,-10.52099 -1.86084,-3.80518 -5.52197,-6.11914 -5,-6.41797 2.39795,-1.37012 2.01514,-4.32715 2.01514,-4.32715 0,0 -8.80518,-4.51172 -9.83106,-6.90772 -1.0293,-2.39794 3.08984,1.271 4.1167,-0.0991 1.02832,-1.37011 17.93213,-21.76025 17.93213,-21.76025 0,0 -5.57715,-3.80762 -5.57715,-9.2876 0,-5.48144 2.0791,-13.3374 -3.05957,-18.1333 -5.13721,-4.79394 -10.71435,-6.3999 -10.71435,-6.3999 0,0 -25.51807,6.4209 -27.91602,10.53076 -2.39697,4.11035 -9.58984,10.61816 -9.58984,10.61816"
         style="fill:#ba9458;fill-opacity:1;fill-rule:nonzero;stroke:none"
         id="path16" /><path
         d="m 113.69238,-104.07031 c 0,0 -3.91015,-1.03614 -9.97705,1.63965 -6.06689,2.67578 -18.62304,-5.70606 -18.62304,-5.70606 0,0 4.95117,2.87793 11.88427,-0.18115 6.93506,-3.05908 6.85401,-10.57373 12.67969,-16.63672 5.75635,-5.99023 9.34131,-4.12012 9.34131,-4.12012 0,0 3.98193,12.9751 3.98193,12.9751 0,0 -2.80029,3.38086 -2.80029,3.38086 0,0 -6.48682,8.64844 -6.48682,8.64844 z"
         style="fill:#231f20;fill-opacity:1;fill-rule:nonzero;stroke:none"
         id="path18" /><path
         d="m 113.69238,-105.94531 c -5.49804,-1.25342 -10.18994,2.84472 -15.71093,1.82129 -4.54297,-0.8418 -9.06202,-3.36377 -12.88916,-5.8877 0,0 0,3.75 0,3.75 4.77929,2.58594 11.19531,1.01563 15.12988,-2.33203 2.51709,-2.14111 3.8291,-5.70117 5.3081,-8.55713 1.87012,-3.60791 4.38428,-6.63769 7.74707,-8.93994 2.66993,-1.82715 5.34522,-2.33106 6.29004,0.74707 1.13721,3.70703 2.27393,7.41309 3.41211,11.11914 0,0 0,-3.75 0,-3.75 -3.23633,3.90674 -6.24316,7.96973 -9.28711,12.0293 -0.60986,0.8125 0.58887,2.96386 0,3.75 3.04395,-4.05957 6.05078,-8.12256 9.28711,-12.0293 1.85401,-2.23926 -2.15185,-10.76221 -2.68896,-12.51123 -0.46924,-1.52783 -0.47217,-4.16992 -2.27002,-4.46191 -4.61719,-0.74903 -8.90918,4.64111 -11.10303,7.89306 -2.94531,4.36377 -4.13086,9.41699 -8.72021,12.4878 -3.52881,2.36328 -9.30664,2.85986 -13.10498,0.80517 0.52832,0.28516 -0.55372,3.38379 0,3.75 3.64306,2.40332 7.63427,4.37793 11.81787,5.625 5.97216,1.78027 10.88037,-2.9043 16.78222,-1.55859 -0.24414,-0.0566 0.29785,-3.68262 0,-3.75"
         style="fill:#ba9458;fill-opacity:1;fill-rule:nonzero;stroke:none"
         id="path20" /><path
         d="m 125.50977,-127.44629 c 0,0 -3.91114,-1.03711 -9.97803,1.63916 -6.0669,2.67676 -18.62305,-5.70508 -18.62305,-5.70508 0,0 4.95117,2.87793 11.88526,-0.18213 6.93408,-3.0581 6.85302,-10.57373 12.67871,-16.63671 5.75586,-5.99024 9.34277,-4.12012 9.34277,-4.12012 0,0 1.82324,6.44287 5.53613,8.44385 3.71192,2.00097 0.72754,1.625 0.72754,1.625 0,0 -2.28222,2.90625 -2.28222,2.90625 0,0 -2.80176,3.38183 -2.80176,3.38183 0,0 -6.48535,8.64795 -6.48535,8.64795 z"
         style="fill:#231f20;fill-opacity:1;fill-rule:nonzero;stroke:none"
         id="path22" /><path
         d="m 125.50977,-129.32129 c -5.49903,-1.25391 -10.19092,2.84522 -15.71192,1.8208 -4.54297,-0.8418 -9.06201,-3.36279 -12.88916,-5.88672 0,0 0,3.75 0,3.75 4.43115,2.396 10.21094,1.13184 14.18213,-1.52588 4.96094,-3.32226 6.45996,-10.88916 10.38184,-15.29296 0.50293,-0.56543 8.50586,-6.93702 9.38086,-3.99219 0.55273,1.85595 1.41113,3.58789 2.41211,5.23779 0.98925,1.62793 4.52539,3.07617 4.93164,4.55713 0,0 0,-3.75 0,-3.75 -1.28711,0.74512 -1.63672,0.80615 -2.8086,2.29883 -1.10156,1.40234 -2.25586,2.7622 -3.39355,4.13525 -2.29004,2.76514 -4.33106,5.7749 -6.48535,8.64795 -0.60987,0.81299 0.58886,2.96387 0,3.75 2.16211,-2.88281 4.32324,-5.76514 6.48535,-8.64795 0.93164,-1.24219 2.01172,-2.375 2.9707,-3.59717 1.23633,-1.57373 1.82813,-2.02588 3.23145,-2.83691 0.25781,-0.14893 0.10937,-3.34717 0,-3.75 -0.36133,-1.31689 -3.93262,-3.16016 -4.93164,-4.55713 -1.10547,-1.54687 -1.8379,-3.43603 -2.41211,-5.23779 -0.95215,-2.99024 -8.85694,3.48388 -9.38086,3.99219 -4.53662,4.38867 -5.53565,11.17089 -10.38184,15.29296 -3.53809,3.00879 -10.06201,3.75391 -14.18213,1.52588 0.52686,0.28467 -0.55371,3.38379 0,3.75 3.64307,2.40283 7.63428,4.37696 11.81787,5.62403 5.97315,1.77978 10.88135,-2.9043 16.78321,-1.55811 -0.24414,-0.0562 0.29785,-3.68213 0,-3.75"
         style="fill:#ba9458;fill-opacity:1;fill-rule:nonzero;stroke:none"
         id="path24" /><path
         d="m 144.52539,-167.59131 c 0,0 -6.20898,-1.1582 -11.26172,2.94824 -5.05273,4.10498 -8.33008,5.30469 -12.3164,5.05176 -6.63086,-0.41992 -6.63086,-7.89502 -6.63086,-7.89502 0,0 -3.87598,19.6211 14.84179,24.31592 4.45508,1.11816 8.83594,1.10693 8.83594,1.10693 3.62012,-11.48193 21.79395,-21.333 21.79395,-21.333 0,0 -0.42383,-2.625 -3.37891,-4.10401 -2.95996,-1.479 -11.88379,-0.0908 -11.88379,-0.0908"
         style="fill:#231f20;fill-opacity:1;fill-rule:nonzero;stroke:none"
         id="path26" /><path
         d="m 144.52539,-169.46631 c -7.42285,-1.20996 -11.66699,4.33301 -17.81982,7.10791 -5.64942,2.54834 -12.24317,-0.13086 -12.38037,-6.74707 0.002,-0.0859 -0.002,-0.1709 -0.009,-0.25586 -1.62696,8.59912 -0.0103,18.88721 7.09912,24.52783 4.04687,3.21241 9.5122,4.14405 14.50342,4.56104 2.67285,0.22412 2.25,-0.7207 3.39843,-3.00098 1.07422,-2.13086 2.65039,-4.00488 4.22266,-5.77881 4.46582,-5.04101 10.35059,-9.24121 16.24805,-12.46923 0.26269,-0.14405 0.0928,-3.33594 0,-3.75 -1.45508,-6.49903 -10.50586,-4.9087 -15.2627,-4.19483 -0.21094,0.0322 0.15527,3.72705 0,3.75 4.75684,-0.71387 13.80762,-2.3042 15.2627,4.19483 0,0 0,-3.75 0,-3.75 -7.30469,3.99902 -14.43457,9.41894 -19.25977,16.25537 -1.0293,1.458 -1.76562,5.10595 -3.50684,5.05371 -3.55566,-0.10498 -7.07617,-0.7417 -10.44433,-1.87207 -5.03369,-1.68994 -8.84961,-5.47901 -10.93555,-10.28662 -0.76709,-1.76709 -1.16211,-3.68604 -1.43701,-5.58301 -0.1001,-0.68897 -0.10205,-3.74903 -0.19141,-0.97315 0.0234,-0.70996 0.0933,-1.41699 0.17823,-2.12207 0.042,-0.34912 0.0879,-1.44091 0.13574,-0.51513 0.0693,1.3584 0.45947,2.63818 0.99512,3.87695 2.41211,5.57617 9.70312,3.8623 13.80664,1.61816 5.25195,-2.87207 8.85351,-6.96386 15.39648,-5.89697 -0.1709,-0.0278 0.22656,-3.71289 0,-3.75"
         style="fill:#ba9458;fill-opacity:1;fill-rule:nonzero;stroke:none"
         id="path28" /><path
         d="m 159.16699,-162.4834 c 0,0 -2.71094,-2.60791 -9.34179,-2.60791 -6.63086,0 -14.73633,-12.7373 -14.73633,-12.7373 0,0 3.36816,4.63232 10.94824,4.63232 7.57812,0 10.53711,-6.91016 18.31543,-10.10498 7.68457,-3.1582 10.21094,0 10.21094,0 0,0 -0.9336,6.63184 1.65625,9.96094 2.58789,3.32812 -1.05274,2.68994 -1.05274,2.68994 0,0 -2.20019,0.82715 -2.20019,0.82715 0,0 -6.63379,3.33984 -6.63379,3.33984 0,0 -7.16602,4 -7.16602,4 z"
         style="fill:#231f20;fill-opacity:1;fill-rule:nonzero;stroke:none"
         id="path30" /><path
         d="m 159.16699,-164.3584 c -4.08008,-3.63916 -10.18652,-1.70312 -14.66211,-4.75586 -3.8164,-2.604 -6.93359,-6.73535 -9.41601,-10.58935 0,0 0,3.75 0,3.75 4.58984,5.97607 13.45215,5.55127 19.03222,1.5542 4.47266,-3.20313 7.95704,-6.53907 13.42188,-8.0708 2.05957,-0.57715 5.41894,-0.75635 7.02051,1.04394 0,0 0,-3.75 0,-3.75 -0.23243,1.83594 -0.1836,3.70361 -0.17871,5.55078 0.002,0.82813 -0.0176,1.68408 0.0684,2.50586 0.31347,2.99707 1.87109,4.77832 2.69433,7.47803 0,0 0,-3.75 0,-3.75 -0.2207,0.87695 -7.13183,3.1792 -8.31933,3.77734 -3.27735,1.6499 -6.45704,3.4668 -9.66114,5.25586 -0.55371,0.30908 0.50977,3.46485 0,3.75 4.82227,-2.69092 9.71582,-5.80517 14.89942,-7.75293 2.35156,-0.88428 3.09961,-0.29785 3.09961,-3.15527 0,-3.58789 -3.01563,-5.98975 -2.62305,-9.75391 0.082,-0.78906 0.47168,-3.39795 -0.0264,-3.95801 -3.05078,-3.42871 -9.88086,-0.22802 -12.87305,1.40332 -5.5,2.99903 -8.88867,8.36866 -15.60644,8.75391 -3.83984,0.21875 -8.5459,-1.50488 -10.94824,-4.63232 0.59961,0.78125 -0.55664,2.88623 0,3.75 2.55468,3.96631 5.67187,7.7041 9.41601,10.58935 4.36035,3.35987 10.51953,1.06201 14.66211,4.75586 -0.60351,-0.54004 0.63672,-3.1831 0,-3.75"
         style="fill:#ba9458;fill-opacity:1;fill-rule:nonzero;stroke:none"
         id="path32" /><path
         d="m 191.58691,-121.625 c 0,0 -3.1582,4.73584 2.84082,12.31592 6.00098,7.58056 9.95704,15.64013 12.45899,27.17138 5.33105,24.55665 -29.24609,34.32325 -29.24609,34.32325 0,0 23.48046,-12.53907 24.52148,-27.55664 0.7041,-10.16016 -1.22754,-18.98536 -9.75195,-30.03907 -8.52637,-11.05175 -6.82325,-17.79297 -6.82325,-17.79297 0,0 6.31543,0 6.31543,0"
         style="fill:#231f20;fill-opacity:1;fill-rule:nonzero;stroke:none"
         id="path34" /><path
         d="m 228.89551,-129.43213 c 0,0 -2.00098,5.1582 2.10351,6.94727 4.10547,1.78857 5.57911,-1.15821 5.57911,-1.15821 0,0 -1.47364,0.8418 -3.05274,-0.63086 -1.57715,-1.47412 0,-5.89502 0,-5.89502 0,0 -4.58789,0.74805 -4.58789,0.74805"
         style="fill:#231f20;fill-opacity:1;fill-rule:nonzero;stroke:none"
         id="path36" /><path
         d="m 118.64893,-101.75195 c 0,-1.36817 10.5747,-32.61719 34.68017,-53.77491 10.41504,-9.14111 24.30274,-14.958 26.72461,-14.64209 2.4209,0.31592 3.68457,0 3.68457,0 0,0 -5.05371,-0.20898 -6.94726,-6.94726 -1.89454,-6.73682 0.31445,-12.52588 0.31445,-12.52588 0,0 2,-4.21094 2.94824,-3.36914 0.94727,0.84228 -0.31543,4.52734 1.89453,6.21143 2.20996,1.68261 4.4209,3.36767 7.47364,8.52587 3.05273,5.15674 3.36718,7.05176 4.52636,7.57911 1.15821,0.52587 9.05274,2.62988 10.84082,5.89404 1.78907,3.26269 2.52637,7.15869 5.36817,9.68359 2.84277,2.52735 23.5791,17.05323 27.05371,25.5791 3.47265,8.52686 1.05273,6.84229 0.63086,8.73731 -0.42285,1.89453 -0.21094,5.57764 -1.47364,6.8418 -1.26367,1.26416 -0.52539,-0.21094 -2.21093,0.63085 -1.6836,0.84327 -0.31543,1.36915 -1.89551,1.36915 -1.57813,0 -2.9541,-0.6128 -4.94629,0 -2.73633,0.84082 -5.36816,0 -7.57813,-2 0,0 -2.25097,-4.03125 -7.47363,-7.15723 -5.22363,-3.12695 -39.68359,0.73633 -40.63281,-19.36865 -0.65918,-14.01709 3.89551,-18.94727 3.89551,-18.94727 0,0 -17.47168,12.10498 -6.84278,25.99902 10.63086,13.89502 37.47559,11.896 42.31641,15.89502 4.8418,4.00098 7.68359,8.84229 11.89551,8.4209 4.21094,-0.4209 4.10449,-0.94775 7.15722,-0.20996 3.05274,0.73731 5.47266,1.15723 5.36817,0 -0.10547,-1.15674 0.63183,-1.68506 1.57812,-2.21094 0.94825,-0.52587 4.21094,-4.52587 3.57911,-6.63086 -0.63184,-2.10595 0.10546,-3.05322 0.42187,-3.5791 0.31543,-0.52685 1.89453,-2.52588 -1.5791,-9.89502 -3.47461,-7.36816 -19.36817,-17.26318 -23.78809,-22.52588 -4.4209,-5.26318 -4.52734,-10.42089 -8.21191,-13.79003 -3.6836,-3.36719 -10.10547,-4.63086 -12.31543,-7.57813 -2.20996,-2.94678 -1.68359,-5.15771 -6.63086,-10.20996 -4.94922,-5.05273 -4.42188,-4.00098 -5.79004,-7.26416 -1.36914,-3.26172 -4.63086,-5.47266 -6.41992,-2.104 -1.79004,3.36718 -4.00098,10.21044 -3.47363,15.2622 0.52441,5.05323 2.94628,7.36914 2.94628,7.36914 0,0 -9.63476,2.09766 -23.43554,11.64893 -26.31787,18.20898 -47.43897,58.56933 -47.43897,58.56933 0,0 13.78614,0.51368 13.78614,0.51368 z"
         style="fill:#231f20;fill-opacity:1;fill-rule:nonzero;stroke:none"
         id="path38" /><path
         d="m 194.15723,-159.01172 c 0,0 2.84277,1.68506 6,2.63184 3.1582,0.94726 4.73828,0.63232 4.73828,0.63232 0,0 -1.36817,5.2627 -1.36817,5.2627 0,0 -2.73828,1.57812 -6.63281,-2.31592 -3.89551,-3.89404 -2.7373,-6.21094 -2.7373,-6.21094"
         style="fill:#231f20;fill-opacity:1;fill-rule:nonzero;stroke:none"
         id="path40" /><path
         d="m 96.27832,-192.81885 c 0,0 0,3.04199 0,3.04199 0,0 3.15088,3.58692 3.58594,5.542 0.43506,1.95703 -0.32715,5.43506 -0.32715,7.39111 0,1.95508 0.65332,7.49805 1.19629,9.4541 0.54297,1.95606 0.69678,3.75195 0.69678,3.75195 0,0 -11.12891,16.02686 -11.12891,16.02686 0,0 -2.39111,0.86816 -2.39111,0.86816 0,0 -5.21582,-1.84716 -5.21582,-1.84716 0,0 -1.74024,1.52099 -1.41407,4.23828 0,0 0,3.15185 1.41407,4.88965 1.41211,1.74023 8.30615,6.64502 8.30615,6.64502 0,0 -12.56738,0.30712 -7.5,2.5 11.16601,4.833 16,14.5 15.5,23.33251 -0.22315,3.94336 -1.9624,1.43165 -1.9624,1.43165 0,0 4.23828,0.97656 4.23828,0.97656 0,0 1.37793,-7.96143 0.32715,-12.17139 -2.2212,-8.89502 -7.22998,-12.3623 -7.61524,-12.87744 -0.24414,-0.32373 3.16406,-3.48389 2.56885,-3.85156 -2.69678,-1.67041 -10.71192,-7.17823 -10.8208,-8.7002 -0.10791,-1.52099 0.65283,-2.93506 0.65283,-2.93506 0,0 5.28516,1.56983 5.28516,1.56983 0,0 15.58007,-19.50098 15.58007,-19.50098 0,0 -2.7163,-2.17187 -3.47705,-4.67187 -0.76123,-2.5 -0.21826,-7.60791 -0.21826,-7.60791 0,0 1.08838,-5.21582 0.11035,-9.12793 -0.979,-3.91114 -7.39111,-8.36817 -7.39111,-8.36817"
         style="fill:#231f20;fill-opacity:1;fill-rule:nonzero;stroke:none"
         id="path42" /><path
         d="m 96.27832,-192.81885 c 0,0 0,3.04199 0,3.04199 0,0 3.15088,3.58692 3.58594,5.542 0.43506,1.95703 -0.32715,5.43506 -0.32715,7.39111 0,1.95508 0.65332,7.49805 1.19629,9.4541 0.54297,1.95606 0.69678,3.75195 0.69678,3.75195 0,0 -11.12891,16.02686 -11.12891,16.02686 0,0 -2.39111,0.86816 -2.39111,0.86816 0,0 -5.21582,-1.84716 -5.21582,-1.84716 0,0 -1.74024,1.52099 -1.41407,4.23828 0,0 0,3.15185 1.41407,4.88965 1.41211,1.74023 8.30615,6.64502 8.30615,6.64502 0,0 -12.56738,0.30712 -7.5,2.5 11.16601,4.833 16,14.5 15.5,23.33251 -0.22315,3.94336 -1.9624,1.43165 -1.9624,1.43165 0,0 4.23828,0.97656 4.23828,0.97656 0,0 1.37793,-7.96143 0.32715,-12.17139 -2.2212,-8.89502 -7.22998,-12.3623 -7.61524,-12.87744 -0.24414,-0.32373 3.16406,-3.48389 2.56885,-3.85156 -2.69678,-1.67041 -10.71192,-7.17823 -10.8208,-8.7002 -0.10791,-1.52099 0.65283,-2.93506 0.65283,-2.93506 0,0 5.28516,1.56983 5.28516,1.56983 0,0 15.58007,-19.50098 15.58007,-19.50098 0,0 -2.7163,-2.17187 -3.47705,-4.67187 -0.76123,-2.5 -0.21826,-7.60791 -0.21826,-7.60791 0,0 1.08838,-5.21582 0.11035,-9.12793 -0.979,-3.91114 -7.39111,-8.36817 -7.39111,-8.36817 z"
         style="fill:none;stroke:#231f20;stroke-width:1;stroke-linecap:butt;stroke-linejoin:miter;stroke-miterlimit:10;stroke-dasharray:none;stroke-opacity:1"
         id="path44" /><path
         d="m 43.89551,-145.42236 c 0,0 -5.65088,-1.02784 -9.24805,-0.51416 -3.59619,0.51416 -18.75195,14.3872 -19.52295,20.29394 -0.77099,5.90918 -11.56006,16.69824 -6.6792,23.63379 4.88135,6.93652 12.26514,8.99902 15.92823,9.76172 5.50292,1.14746 14.75976,0.71289 18.87011,0.71289 4.10987,0 14.78076,-3.28223 12.98291,-4.30859 -1.79883,-1.02832 7.1919,-17.21241 7.1919,-17.21241 0,0 -17.21094,-7.45019 -21.06397,-5.9082 -3.854,1.54102 5.90821,1.28516 5.90821,-6.6792 0,-7.96387 0.51367,-15.4126 0.51367,-15.4126 0,0 -7.70606,-7.19336 -5.65186,-5.39502"
         style="fill:#ba9458;fill-opacity:1;fill-rule:nonzero;stroke:none"
         id="path46" /><path
         d="m 98.21777,-185.8999 c 0.771,-0.51416 7.44922,-3.59717 3.08301,-13.10108 -4.36816,-9.50488 -8.22119,-8.47802 -8.22119,-8.47802 0,0 2.56934,0.51513 2.31201,3.083 -0.25683,2.56934 0,3.59717 -0.25683,2.56934 -0.25684,-1.02832 -9.18116,-10.09912 -17.98194,-7.96436 -11.71094,2.84327 -15.88623,13.4292 -19.99707,14.20118 -4.10888,0.77099 -6.75586,-0.0991 -7.18994,-1.49512 -1.37988,-4.44287 1.97412,-5.06104 1.97412,-5.06104 0,0 -2.06592,-1.41211 -4.58496,1.60205 -1.69629,2.03223 -2.04541,2.63721 -2.04541,2.63721 0,0 -14.97656,-1.56201 -16.51758,7.17188 -8.22119,12.84375 7.51563,20.7622 7.51563,20.7622 0.77099,-0.51416 -4.10987,-6.16504 1.79931,-7.19336 5.90772,-1.02783 7.96387,4.36719 12.33008,4.62305 4.3667,0.25684 25.68897,-11.30078 30.05469,-13.1001 4.36914,-1.79882 17.72607,-0.25683 17.72607,-0.25683"
         style="fill:#ba9458;fill-opacity:1;fill-rule:nonzero;stroke:none"
         id="path48" /><path
         d="m 96.41992,-202.59766 c 0,0 4.62305,5.13819 4.62305,9.50391 0,4.36816 -2.8252,7.19385 -2.8252,7.19385 0,0 -25.17382,3.08203 -25.17382,3.08203 0,0 -3.8462,-0.043 -5.12989,1.75439 -1.28515,1.79883 -10.14502,5.94776 -15.54004,5.43457 -5.39502,-0.51367 -9.95117,-4.53173 -13.8042,-4.53173 -3.854,0 -5.45996,5.45898 -5.45996,5.45898 0,0 -9.27978,-10.50928 1.00684,-17.77197 5.07519,-3.58399 13.75098,-2.93116 13.75098,-2.93116 0,0 6.6792,6.6792 14.38623,-0.51513 7.70703,-7.19092 16.31298,-11.39356 21.83496,-10.27393 8.71093,1.76612 12.33105,9.24707 12.33105,9.24707 0,0 0.25586,-2.8247 0.25586,-3.59668 0,-0.77002 -0.25586,-2.0542 -0.25586,-2.0542"
         style="fill:#231f20;fill-opacity:1;fill-rule:nonzero;stroke:none"
         id="path50" /><path
         d="m 63.93311,-117.93604 c 0,0 27.229,16.44092 84.00146,17.46827 56.77051,1.02929 94.76758,1.75293 94.76758,1.75293 0,0 -2.82227,1.3955 -4.87695,2.67968 -2.05567,1.28418 -4.17774,3.87305 -4.17774,3.87305 0,0 -86.22656,0.68652 -86.22656,0.68652 0,0 -93.11475,1.69239 -93.11475,1.69239 0,0 -2.44726,-5.54688 0.63477,-15.05078 3.08301,-9.50586 8.99219,-13.10206 8.99219,-13.10206"
         style="fill:#ba9458;fill-opacity:1;fill-rule:nonzero;stroke:none"
         id="path52" /><path
         d="m 141.88965,-17.01465 c 0,0 35.31055,0.14942 35.31055,0.14942 0,0 7.47168,-26.14844 7.47168,-26.14844 0,0 22.07031,0 22.07031,0 0,0 6.98828,-23.93848 6.98828,-23.93848 0,0 6.76562,0 6.76562,0 0,0 6.11426,-26.31738 6.11426,-26.31738 0,0 -209.35254,0 -209.35254,0 0,0 19.5249,15.62012 19.5249,15.62012 0,0 -12.22509,46.52343 -12.22509,46.52343 0,0 19.0708,14.25977 19.0708,14.25977 0,0 28.78222,0.02051 28.86426,0 0.12402,-0.03223 17.7749,-10.86524 17.7749,-10.86524 0,0 12.56299,10.52637 12.56299,10.52637 0,0 28.5249,0 28.5249,0 0,0 12.90527,-6.11133 12.90527,-6.11133 0,0 -2.37109,6.30176 -2.37109,6.30176"
         style="fill:#231f20;fill-opacity:1;fill-rule:nonzero;stroke:none"
         id="path54" /><path
         d="m 40.85693,-85.62988 c 0,0 25.13086,0 25.13086,0 0,0 -11.71582,49.24023 -11.71582,49.24023 0,0 13.07276,0 13.07276,0 0,0 10.69824,-43.1289 10.69824,-43.1289 0,0 -5.96826,-5.92188 -5.96826,-5.92188 0,0 26.34326,-0.01855 26.34326,-0.01855 0,0 -11.71582,50.25585 -11.71582,50.25585 0,0 -16.30029,11.37793 -16.30029,11.37793 0,0 -24.27979,0 -24.27979,0 0,0 -12.92236,-10.02636 -12.92236,-10.02636 0,0 11.0542,-47.02442 11.0542,-47.02442 0,0 -4.75391,-4.7539 -4.75391,-4.7539 0,0 1.35693,0 1.35693,0 z"
         style="fill:#ba9458;fill-opacity:1;fill-rule:nonzero;stroke:none"
         id="path56" /><path
         d="m 121.50879,-85.29004 c 0,0 -17.31885,8.99805 -17.31885,8.99805 0,0 -10.01709,41.94043 -10.01709,41.94043 0,0 11.5459,9.50781 11.5459,9.50781 0,0 24.10938,0 24.10938,0 0,0 16.46972,-9 16.46972,-9 0,0 3.9043,-16.29883 3.9043,-16.29883 0,0 -19.35449,0 -19.35449,0 0,0 -3.73438,14.26074 -3.73438,14.26074 0,0 -13.07471,0 -13.07471,0 0,0 8.32129,-32.59961 8.32129,-32.59961 0,0 -6.62304,-5.77246 -6.62304,-5.77246 0,0 21.56298,0 21.56298,0 0,0 -2.88574,11.5459 -2.88574,11.5459 0,0 18.37989,0.0293 18.37989,0.0293 0,0 3.86328,-13.10156 3.86328,-13.10156 0,0 -12.22461,-9.67871 -12.22461,-9.67871 0,0 -22.92383,0.16894 -22.92383,0.16894 z"
         style="fill:#ba9458;fill-opacity:1;fill-rule:nonzero;stroke:none"
         id="path58" /><path
         d="m 216.59082,-85.29004 c 0,0 -2.7168,11.03613 -2.7168,11.03613 0,0 -37.52343,0 -37.52343,0 0,0 6.11425,5.09278 6.11425,5.09278 0,0 -1.18945,6.62304 -1.18945,6.62304 0,0 21.90234,0 21.90234,0 0,0 -3.22558,11.20606 -3.22558,11.20606 0,0 -22.07227,0 -22.07227,0 0,0 -6.79101,25.46875 -6.79101,25.46875 0,0 -18.5918,0.2539 -18.84864,0 -0.25488,-0.25586 13.41407,-55.0127 13.41407,-55.0127 0,0 -4.97657,-4.583 -4.97657,-4.583 0,0 55.91309,0.16894 55.91309,0.16894 z"
         style="fill:#ba9458;fill-opacity:1;fill-rule:nonzero;stroke:none"
         id="path60" /><path
         d="m 53.52295,-31.78223 c 0,0 17.94482,0 17.94482,0 0,0 11.88233,-49.06738 11.88233,-49.06738 0,0 11.31689,0 11.31689,0 0,0 0.64697,-2.90918 0.40186,-2.74707 -0.2417,0.16211 -15.68018,0 -15.68018,0 0,0 1.45508,1.61523 1.45508,1.61523 0,0 -11.31689,47.04688 -11.31689,47.04688 0,0 -15.59913,0 -15.59913,0 0,0 -0.40478,3.15234 -0.40478,3.15234 z"
         style="fill:#231f20;fill-opacity:1;fill-rule:nonzero;stroke:none"
         id="path62" /><path
         d="m 35.88379,-36.55078 c 0,0 2.74902,2.10058 2.74902,2.10058 0,0 11.23487,-46.63867 11.23487,-46.63867 0,0 10.75,0 10.75,0 0,0 0.97119,-2.66992 0.97119,-2.66992 0,0 -16.41016,0 -16.41016,0 0,0 1.7793,1.7002 1.7793,1.7002 0,0 -11.07422,45.50781 -11.07422,45.50781 z"
         style="fill:#231f20;fill-opacity:1;fill-rule:nonzero;stroke:none"
         id="path64" /><path
         d="m 137.30176,-65.82617 c 0,0 2.75,0 2.75,0 0,0 1.94043,-8.65137 1.94043,-8.65137 0,0 -2.74903,0 -2.74903,0 0,0 -1.95898,8.58887 -1.95898,8.58887"
         style="fill:#231f20;fill-opacity:1;fill-rule:nonzero;stroke:none"
         id="path66" /><path
         d="m 145.58008,-80.69922 c 0,0 -22.95606,0 -22.95606,0 0,0 -14.06494,7.51758 -14.06494,7.51758 0,0 -9.61914,38.63769 -9.61914,38.63769 0,0 -2.18164,-1.37597 -2.18164,-1.37597 0,0 9.37598,-39.1211 9.37598,-39.1211 0,0 15.51904,-8.65039 15.51904,-8.65039 0,0 20.28906,0 20.28906,0 0,0 3.6377,2.99219 3.6377,2.99219 z"
         style="fill:#231f20;fill-opacity:1;fill-rule:nonzero;stroke:none"
         id="path68" /><path
         d="m 141.34473,-49.25586 c 0,0 -8.48731,0 -8.48731,0 0,0 -3.47461,14.54981 -3.47461,14.54981 0,0 -15.84424,0 -15.84424,0 0,0 -0.80908,2.82812 -0.80908,2.82812 0,0 18.5127,0 18.5127,0 0,0 3.31445,-14.54883 3.31445,-14.54883 0,0 5.98047,0 5.98047,0 0,0 0.80762,-2.8291 0.80762,-2.8291 z"
         style="fill:#231f20;fill-opacity:1;fill-rule:nonzero;stroke:none"
         id="path70" /><path
         d="m 166.77637,-83.43262 c 0,0 45.83105,0 45.83105,0 0,0 -0.8916,2.99219 -0.8916,2.99219 0,0 -40.49316,0 -40.49316,0 0,0 -13.01563,52.13672 -13.01563,52.13672 0,0 -2.90918,0 -2.90918,0 0,0 13.17578,-53.18848 13.17578,-53.18848 0,0 -1.69726,-1.94043 -1.69726,-1.94043 z"
         style="fill:#231f20;fill-opacity:1;fill-rule:nonzero;stroke:none"
         id="path72" /><path
         d="m 179.70898,-60.55664 c 0,0 19.07715,0 19.07715,0 0,0 -0.64746,2.58691 -0.64746,2.58691 0,0 -18.91308,0 -18.91308,0 0,0 0.48339,-2.58691 0.48339,-2.58691 z"
         style="fill:#231f20;fill-opacity:1;fill-rule:nonzero;stroke:none"
         id="path74" /><path
         d="m 190.03125,-37.1084 c 0,0 -1.06836,0 -1.06836,0 0,0 0.14941,-0.75586 0.14941,-0.75586 0,0 3.01075,0 3.01075,0 0,0 -0.14453,0.75586 -0.14453,0.75586 0,0 -1.08204,0 -1.08204,0 0,0 -0.62402,3.29492 -0.62402,3.29492 0,0 -0.86621,0 -0.86621,0 0,0 0.625,-3.29492 0.625,-3.29492 z"
         style="fill:#231f20;fill-opacity:1;fill-rule:nonzero;stroke:none"
         id="path76" /><path
         d="m 195.22754,-33.81348 c 0,0 0.24414,-1.67187 0.24414,-1.67187 0.0674,-0.43848 0.1582,-0.99707 0.27051,-1.5791 0,0 -0.0146,0 -0.0146,0 -0.22461,0.5205 -0.47852,1.0791 -0.69922,1.52441 0,0 -0.83008,1.66113 -0.83008,1.66113 0,0 -0.67383,0 -0.67383,0 0,0 -0.14257,-1.64257 -0.14257,-1.64257 -0.0361,-0.44336 -0.0654,-1.00098 -0.0928,-1.54297 0,0 -0.009,0 -0.009,0 -0.11816,0.5332 -0.23632,1.14843 -0.33593,1.5791 0,0 -0.40528,1.67187 -0.40528,1.67187 0,0 -0.79199,0 -0.79199,0 0,0 1.01465,-4.05078 1.01465,-4.05078 0,0 1.16113,0 1.16113,0 0,0 0.12695,1.54492 0.12695,1.54492 0.0234,0.37696 0.0664,0.83399 0.0703,1.28516 0,0 0.0244,0 0.0244,0 0.15527,-0.45117 0.3711,-0.92578 0.54688,-1.29297 0,0 0.7539,-1.53711 0.7539,-1.53711 0,0 1.16895,0 1.16895,0 0,0 -0.5459,4.05078 -0.5459,4.05078 0,0 -0.84082,0 -0.84082,0 z"
         style="fill:#231f20;fill-opacity:1;fill-rule:nonzero;stroke:none"
         id="path78" /><path
         d="m 223.69922,-93.33887 c 0,0 12.16601,-0.04297 12.16601,-0.04297 0,0 -3.3955,3.25489 -3.3955,3.25489 0,0 -12.6084,0.10254 -12.6084,0.10254 0,0 3.83789,-3.31446 3.83789,-3.31446 z"
         style="fill:#231f20;fill-opacity:1;fill-rule:nonzero;stroke:none"
         id="path80" /><path
         d="m 100.99121,-172.58643 c 0,-1.52783 4.19775,-10.45312 -2.53906,-16.64697 -6.10791,-5.61523 -15.75684,-6.75586 -21.95899,-3.55713 -6.20019,3.19922 -11.4038,15.51221 -11.4038,15.51221 0,0 16.8208,-16.71826 26.06494,-10.1001 10.12011,7.24707 9.83691,13.37305 9.83691,14.79199"
         style="fill:#ba9458;fill-opacity:1;fill-rule:nonzero;stroke:none"
         id="path82" /><path
         d="m 62.55664,-165.08691 c 0,0 0.45215,-23.22413 18.12305,-25.12305 21.24707,-2.28272 20.76513,16.66699 20.79687,22.22607 0.0229,4.20996 2.21289,3.35205 0.88819,6.06397 -3.19629,6.54199 -12.95118,13.07422 -12.95118,13.07422 0,0 -8.76074,0.48193 -6.29003,6.33398 2.47216,5.85205 11.37792,9.80469 11.37792,9.80469 0,0 -8.04296,4.37012 -16.9541,0.38623 -10.92187,-4.88428 -14.1289,-14.12988 -14.38574,-17.98193 -0.50683,-7.60938 -0.60498,-14.78418 -0.60498,-14.78418"
         style="fill:#ba9458;fill-opacity:1;fill-rule:nonzero;stroke:none"
         id="path84" /><path
         d="m 88.42773,-145.26367 c 0,0 13.27198,-17.55811 13.27198,-17.55811 0,0 -11.81299,-0.75781 -18.75391,-7.94189 -3.53809,-3.66113 -7.18799,-7.76612 -7.18799,-7.76612 0,0 -5.22412,4.50489 -5.22412,4.50489 0,0 -3.77881,10.1001 3.70801,19.12011 7.48779,9.021 14.18603,9.64112 14.18603,9.64112"
         style="fill:#231f20;fill-opacity:1;fill-rule:nonzero;stroke:none"
         id="path86" /><path
         d="m 88.42773,-145.26367 c 0,0 13.27198,-17.55811 13.27198,-17.55811 0,0 -11.81299,-0.75781 -18.75391,-7.94189 -3.53809,-3.66113 -7.18799,-7.76612 -7.18799,-7.76612 0,0 -5.22412,4.50489 -5.22412,4.50489 0,0 -3.77881,10.1001 3.70801,19.12011 7.48779,9.021 14.18603,9.64112 14.18603,9.64112 z"
         style="fill:none;stroke:#231f20;stroke-width:1;stroke-linecap:butt;stroke-linejoin:miter;stroke-miterlimit:10;stroke-dasharray:none;stroke-opacity:1"
         id="path88" /><path
         d="m 77.76416,-178.10107 c 0.8042,1.90478 -0.08789,4.10107 -1.99316,4.90478 -1.90284,0.8042 -4.09961,-0.0879 -4.90381,-1.99072 -0.80518,-1.90625 0.08789,-4.10108 1.99219,-4.90625 1.90478,-0.80371 4.10058,0.0884 4.90478,1.99219"
         style="fill:#231f20;fill-opacity:1;fill-rule:nonzero;stroke:none"
         id="path90" /><path
         d="m 77.76416,-178.10107 c 0.8042,1.90478 -0.08789,4.10107 -1.99316,4.90478 -1.90284,0.8042 -4.09961,-0.0879 -4.90381,-1.99072 -0.80518,-1.90625 0.08789,-4.10108 1.99219,-4.90625 1.90478,-0.80371 4.10058,0.0884 4.90478,1.99219 z"
         style="fill:none;stroke:#231f20;stroke-width:1;stroke-linecap:butt;stroke-linejoin:miter;stroke-miterlimit:10;stroke-dasharray:none;stroke-opacity:1"
         id="path92" /><path
         d="m 35.16162,-145.55127 c 0,0 -9.84912,5.01514 -14.64209,12.58691 -3.99414,6.31006 -5.39502,13.87305 -2.56885,15.15723 2.82569,1.28467 -4.62402,2.82568 -4.62402,2.82568 0,0 -6.6792,1.79834 -6.6792,1.79834 0,0 2.56934,-11.04638 9.50391,-20.29443 6.93701,-9.24658 14.64306,-14.38574 14.64306,-14.38574 0,0 4.36719,2.31201 4.36719,2.31201 z"
         style="fill:#231f20;fill-opacity:1;fill-rule:nonzero;stroke:none"
         id="path94" /><path
         d="m 63.67578,-179.33154 c 0,0 0.43408,5.31299 4.67188,10.31103 4.23925,4.99903 8.58593,7.82324 8.58593,7.82324 0,0 -6.62988,4.78272 -8.25976,7.9336 -1.62988,3.15137 -3.36914,7.93408 -1.62988,12.38916 0,0 1.73876,4.45508 1.73876,4.45508 0,0 -4.78076,-2.28125 -4.34814,-10.10498 0.43604,-7.82618 4.7832,-11.521 3.04443,-16.73731 -1.73925,-5.21582 -4.78222,-7.82373 -4.99902,-10.32373 -0.21728,-2.49805 1.30371,-6.08496 1.30371,-6.08496"
         style="fill:#231f20;fill-opacity:1;fill-rule:nonzero;stroke:none"
         id="path96" /><path
         d="m 63.67578,-179.33154 c 0,0 0.43408,5.31299 4.67188,10.31103 4.23925,4.99903 8.58593,7.82324 8.58593,7.82324 0,0 -6.62988,4.78272 -8.25976,7.9336 -1.62988,3.15137 -3.36914,7.93408 -1.62988,12.38916 0,0 1.73876,4.45508 1.73876,4.45508 0,0 -4.78076,-2.28125 -4.34814,-10.10498 0.43604,-7.82618 4.7832,-11.521 3.04443,-16.73731 -1.73925,-5.21582 -4.78222,-7.82373 -4.99902,-10.32373 -0.21728,-2.49805 1.30371,-6.08496 1.30371,-6.08496"
         style="fill:none;stroke:#231f20;stroke-width:1;stroke-linecap:butt;stroke-linejoin:miter;stroke-miterlimit:10;stroke-dasharray:none;stroke-opacity:1"
         id="path98" /><path
         d="m 90.92676,-145.80762 c 0,0 13.27197,-17.55713 13.27197,-17.55713 0,0 -11.81299,-0.75781 -18.75391,-7.94091 -3.53711,-3.66211 -7.18798,-7.76807 -7.18798,-7.76807 0,0 -5.22413,4.50439 -5.22413,4.50439 0,0 -3.77783,10.10157 3.70899,19.12159 7.4873,9.02099 14.18506,9.64013 14.18506,9.64013"
         style="fill:#ba9458;fill-opacity:1;fill-rule:nonzero;stroke:none"
         id="path100" /><path
         d="m 93.91943,-152.41699 c 0,0 -2.37402,3.09277 -2.37402,3.09277 0,0 -2.91992,-2.36182 -4.54492,-5.02099 -1.62403,-2.6587 -0.70606,-2.46192 -0.70606,-2.46192 0,0 3.08594,1.95899 4.8208,2.89893 1.73536,0.93945 2.64307,1.30713 2.64307,1.30713"
         style="fill:#231f20;fill-opacity:1;fill-rule:nonzero;stroke:none"
         id="path102" /><path
         d="m 98.0542,-158.58643 c 0,0 -2.2168,3.20606 -2.2168,3.20606 0,0 -3.03418,-2.21387 -4.78906,-4.78906 -1.75391,-2.5752 -0.82715,-2.42383 -0.82715,-2.42383 0,0 3.1792,1.80273 4.95801,2.65576 1.77881,0.85205 2.70508,1.17627 2.70508,1.17627"
         style="fill:#231f20;fill-opacity:1;fill-rule:nonzero;stroke:none"
         id="path104" /><path
         d="m 81.26074,-178.55469 c 0.80518,1.90381 -0.08691,4.1001 -1.99121,4.90479 -1.90478,0.80322 -4.10107,-0.0879 -4.90478,-1.99268 -0.8042,-1.9043 0.08789,-4.1001 1.99218,-4.9043 1.90381,-0.80371 4.09961,0.0874 4.90381,1.99219"
         style="fill:#ffffff;fill-opacity:1;fill-rule:nonzero;stroke:none"
         id="path106" /><path
         d="m 90.98828,-193.37549 c 0,0 7.25781,1.31885 10.47608,7.72901 2.68896,5.35595 -0.0132,10.83886 -0.0132,10.83886 0,0 0.76807,-5.42773 -2.82763,-11.59277 -3.6504,-6.2583 -7.63526,-6.9751 -7.63526,-6.9751"
         style="fill:#ffffff;fill-opacity:1;fill-rule:nonzero;stroke:none"
         id="path108" /><path
         d="m 78.71973,-178.42627 c 0.80517,1.90479 -0.08594,4.1001 -1.99121,4.90381 -1.90479,0.80517 -4.10059,-0.0879 -4.90479,-1.99072 -0.8042,-1.90528 0.08691,-4.10108 1.99219,-4.90625 1.90478,-0.80371 4.09961,0.0893 4.90381,1.99316"
         style="fill:#ba9458;fill-opacity:1;fill-rule:nonzero;stroke:none"
         id="path110" /><path
         d="m 80.95557,-175.21338 c 0,0 5.9331,6.68213 12.21386,9.31397 6.28223,2.63086 11.09815,2.67089 11.09815,2.67089 0,0 -6.34619,8.22217 -6.34619,8.22217 0,0 3.29834,-3.74902 0.37304,-6.20703 -3.21093,-2.69678 -10.32568,-4.30615 -14.12793,-7.57812 -5.52392,-4.75196 -4.3667,-5.90772 -4.3667,-5.90772 0,0 1.15577,-0.51416 1.15577,-0.51416 z"
         style="fill:#ffffff;fill-opacity:1;fill-rule:nonzero;stroke:none"
         id="path112" /><path
         d="m 41.19873,-145.16504 c 0.51318,-0.38574 14.771,6.16504 14.89893,9.89014 0.1289,3.7251 1.66894,6.03711 -1.28418,11.43115 -3.21973,5.88086 -10.40381,5.90771 -10.40381,5.90771 0,0 -11.0459,-2.6958 -11.0459,-2.6958 0,0 12.2207,-0.21093 15.80273,-5.9414 3.85303,-6.16455 0.76612,-11.01367 -3.21582,-13.45459 -6.5122,-3.99121 -4.75195,-5.13721 -4.75195,-5.13721"
         style="fill:#ffffff;fill-opacity:1;fill-rule:nonzero;stroke:none"
         id="path114" /><path
         d="m 30.79492,-106.76074 c 0,0 1.54102,-2.95508 -1.54199,-6.93701 -3.08203,-3.98096 -10.53223,-3.20996 -10.53223,-3.20996 0,0 7.06397,-3.08204 14.1294,-2.18409 0,0 7.06396,0.89991 7.06396,0.89991 0,0 -2.05517,2.43896 -4.36718,5.1372 -2.31202,2.69678 -4.75196,6.29395 -4.75196,6.29395"
         style="fill:#ffffff;fill-opacity:1;fill-rule:nonzero;stroke:none"
         id="path116" /><path
         d="m 42.04883,-118.26807 c 0,0 -4.99903,-4.34814 -16.90528,-2.75 -13.21093,1.77198 -20.03759,5.65088 -20.03759,5.65088 0,0 -3.04932,12.63965 5.65088,20.8086 7.06689,6.63574 20.96679,3.02343 20.96679,3.02343 0,0 -23.91406,-1.2207 -20.86377,-16.51709 1.79688,-9.02197 12.49707,-11.30371 23.27393,-10.13964 3.42725,0.36767 7.91504,-0.0762 7.91504,-0.0762"
         style="fill:#231f20;fill-opacity:1;fill-rule:nonzero;stroke:none"
         id="path118" /><path
         d="m 54.68506,-108.81592 c 0,0 -0.12793,-1.54199 -3.46777,-3.33984 -3.34034,-1.79834 -12.45899,-3.59717 -12.45899,-3.59717 0,0 0.54492,-2.33496 3.29102,-2.51514 2.7456,-0.18164 9.68066,-1.85205 14.69091,-0.69482 5.00879,1.15625 6.42188,2.05518 6.42188,2.05518 0,0 -3.46777,2.31201 -4.75195,3.85302 -1.28516,1.54102 -3.7251,4.23877 -3.7251,4.23877"
         style="fill:#ffffff;fill-opacity:1;fill-rule:nonzero;stroke:none"
         id="path120" /><path
         d="m 50.25488,-119.51563 c 0,0 -11.7539,1.58008 -15.86377,11.59913 -4.11035,10.01806 1.28467,20.55029 1.28467,20.55029 0,0 -9.50488,-7.70606 -6.16601,-19.00977 3.34033,-11.30273 9.77392,-13.65869 13.8833,-13.25976 2.41259,0.23535 6.86181,0.12011 6.86181,0.12011"
         style="fill:#231f20;fill-opacity:1;fill-rule:nonzero;stroke:none"
         id="path122" /><path
         d="m 174.39453,-106.11914 c 0,0 -1.79883,-7.11719 -1.79883,-11.0459 0,-13.61426 2.31055,-11.0459 2.31055,-11.0459 0,0 -5.65039,-4.88135 -6.42187,-8.47802 -0.76954,-3.5962 -0.76954,-6.67725 -0.76954,-6.67725 0,0 -1.28515,11.55908 1.02735,21.57715 2.3125,10.01806 5.65234,15.66992 5.65234,15.66992"
         style="fill:#231f20;fill-opacity:1;fill-rule:nonzero;stroke:none"
         id="path124" /><path
         d="m 137.14453,-100.72461 c 0,-1.02734 -3.08301,-6.42139 2.05371,-20.29346 5.13965,-13.87304 12.58789,-23.63427 12.58789,-23.63427 0,0 -8.99023,7.96338 -16.43945,24.66211 -5.33008,11.94628 -6.67871,19.52246 -6.67871,19.52246 0,0 8.47656,-0.25684 8.47656,-0.25684 z"
         style="fill:#231f20;fill-opacity:1;fill-rule:nonzero;stroke:none"
         id="path126" /><path
         d="m 83.5,-146.46777 c 0,0 -2.5332,2.16015 1.48096,6.59082 4.01513,4.43017 9.52099,7.16992 9.52099,7.16992 0,0 -1.91699,1.41015 -4.05273,2.13916 -2.13721,0.72998 -7.3833,-0.37402 -7.3833,-0.37402 0,0 13.12207,4.35693 15.10303,11.70703 1.98095,7.35009 0.72998,13.45068 0.83398,12.72119 0.10498,-0.72998 -1.04102,-7.87207 -4.27393,-13.45117 -3.23193,-5.57715 -17.41699,-12.58106 -17.41699,-12.58106 0,0 6.31397,1.05322 6.5752,-0.77099 0.26074,-1.82374 -1.21143,-1.29883 -2.86817,-6.19483 -2.24218,-6.62109 0.80909,-7.93994 0.80909,-7.93994 0,0 1.67187,0.98389 1.67187,0.98389 z"
         style="fill:#ffffff;fill-opacity:1;fill-rule:nonzero;stroke:none"
         id="path128" /><path
         d="m 104.26709,-163.22852 c -0.33301,-0.25 -2.00098,-1.9038 -2.68408,-4.08789 -0.83301,-2.66699 0.83301,-14 0.83301,-14 0,0 -0.59571,3.21192 -1.01172,4.29493 -0.417,1.08398 -1.9043,-2.96192 -1.9043,-2.96192 0,0 0.26611,2.42383 -0.5,5 -0.91699,3.08399 -1.41699,4.91699 -0.91699,8.33399 0.5,3.41699 2.25,3.41601 2.25,3.41601 0,0 3.93408,0.005 3.93408,0.005 z"
         style="fill:#ffffff;fill-opacity:1;fill-rule:nonzero;stroke:none"
         id="path130" /><path
         d="m 91.75928,-174.4751 c 0,0 -4.96778,3.47705 -5.30615,4.30811 -0.18262,0.45312 3.41015,2.99707 7.81494,4.80713 2.10302,0.86377 2.92724,1.18798 8.33007,2.39795 0,0 -10.83886,-11.51319 -10.83886,-11.51319 z"
         style="fill:#231f20;fill-opacity:1;fill-rule:nonzero;stroke:none"
         id="path132" /><path
         d="m 100.95117,-176.62744 c 0,0 -1.37793,-3.2041 -3.59082,-6.06787 -1.40918,-1.82617 -4.09619,-3.8252 -6.04199,-4.45899 -4.99902,-1.62988 -12.10205,0.20313 -13.18799,2.15967 -1.08838,1.95508 -1.19629,4.23828 -1.19629,4.23828 0,0 -4.78174,0.97705 -4.99902,2.28174 -0.2168,1.3042 -3.26074,1.84717 -3.58594,3.04297 -0.32568,1.19531 -2.17285,4.02002 -2.17285,4.02002 0,0 -3.26123,-6.8457 -3.26123,-6.8457 0,0 7.71728,-7.49903 7.71728,-7.49903 0,0 4.56299,-5.21631 14.9961,-4.67285 7.4956,0.39063 11.43994,4.02881 12.99463,6.29102 1.35498,1.9707 2.32812,7.51074 2.32812,7.51074"
         style="fill:#231f20;fill-opacity:1;fill-rule:nonzero;stroke:none"
         id="path134" /><path
         d="m 62.16699,-173.06689 c 0,0 1,3.083 2.91699,5.5 1.91602,2.41699 3.25,4.583 2.5,7.583 -0.75,3 -2.58398,6.83399 -3.25,10.25 -0.66699,3.417 -0.25,6.25 -0.41699,6 -0.16699,-0.25 -1.75,-4.25 -1.08301,-8.083 0.66602,-3.83301 2.75,-5.66602 1.75,-9.58301 -1,-3.91699 -1.91699,-5.66699 -2.33398,-8 -0.41602,-2.33399 -0.08301,-3.66699 -0.08301,-3.66699"
         style="fill:#ffffff;fill-opacity:1;fill-rule:nonzero;stroke:none"
         id="path136" /><path
         d="m 55.19775,-136.01807 c 0,0 0.78125,6.62598 -2.28271,11.31787 -3.3794,5.17432 -10.41504,7.38428 -10.41504,7.38428 0,0 8.51758,-3.22705 13.37598,-1.75928 4.85693,1.46924 5.76074,2.03418 5.76074,2.03418 0,0 2.71094,-0.90429 2.71094,-0.90429 0,0 0.67822,-0.1128 0.67822,-0.1128 0,0 11.74707,6.77784 11.74707,6.77784 0,0 -5.99219,-2.38868 -9.60596,-8.03565 -3.61426,-5.64795 -3.27099,-7.21338 -1.80224,-10.71533 1.46826,-3.50195 4.91601,-5.93701 4.91601,-5.93701 0,0 -3.16113,1.01513 -7.45312,0.56299 -4.292,-0.45166 -7.62989,-0.6128 -7.62989,-0.6128"
         style="fill:#231f20;fill-opacity:1;fill-rule:nonzero;stroke:none"
         id="path138" /><path
         d="m 69.94873,-136.04932 c 0,0 -3.21387,-0.52099 -4.95215,-4.34277 -1.73681,-3.82324 0.42432,-3.73926 -4.16992,-7.646 -5.81982,-4.95117 -14.36182,-7.40332 -14.36182,-7.40332 0,0 7.90088,4.61426 8.77002,9.04493 0.86768,4.43017 0.73584,10.82617 0.73584,10.82617 0,0 -0.02881,1.41211 3.97705,2.7251 3.96289,1.29785 10.69678,-3.20411 10.34913,-3.20411"
         style="fill:#ffffff;fill-opacity:1;fill-rule:nonzero;stroke:none"
         id="path140" /><path
         d="m 67.75,-125.2334 c 0,0 -6.5,6.25 -6.5,6.25 0,0 -3.82617,8.34815 -3.82617,8.34815 0,0 7.40918,3.92822 15.92627,6.55029 23.37695,7.19238 50.18603,7.67773 81.6499,8.10156 49.5,0.66699 51.19043,0.44531 82.74121,0.53125 0,0 3.99609,-2.85254 3.99609,-2.85254 0,0 -73.8955,0.09766 -107.12109,-3.08301 -48.29297,-4.62402 -55.20019,-13.98486 -61.36621,-18.0957 0,0 -5.5,-5.75 -5.5,-5.75 z"
         style="fill:#ffffff;fill-opacity:1;fill-rule:nonzero;stroke:none"
         id="path142" /><path
         d="m 56.62012,-91.84473 c 0,0 -2.73584,-3.31836 -0.70801,-13.0166 2.60303,-12.44775 12.1831,-17.74072 12.1831,-17.74072 0,0 10.15479,14.61865 42.40479,20.18994 21.32813,3.68457 130.25,5.10547 130.25,5.10547 0,0 3.78516,-3.35059 3.78516,-3.35059 0,0 -40.20118,-0.83886 -91.36817,-1.32617 -70.00097,-0.66699 -84.68066,-25.08398 -84.68066,-25.08398 -11.45899,7.02539 -14.76807,14.97998 -16.68945,22.55566 -2.05567,8.10938 1.64306,14.70899 1.8374,14.77344 0.19287,0.06445 2.98584,-2.10645 2.98584,-2.10645"
         style="fill:#231f20;fill-opacity:1;fill-rule:nonzero;stroke:none"
         id="path144" /><path
         d="m 56.99658,-150.56006 c 0,0 -7.70605,-5.39599 -4.36719,-12.84521 3.34034,-7.44776 10.53321,-10.01661 10.53321,-10.01661 0,0 2.82519,0 1.54101,-1.54199 -1.28515,-1.54101 -1.02783,-4.36718 -1.02783,-4.36718 0,0 -3.85303,3.59619 -9.24805,7.45019 -5.39404,3.85254 -10.78808,14.38477 -10.78808,14.38477 0,0 -7.70703,-0.51416 -12.07422,1.54004 -4.3667,2.05712 -10.01904,6.68017 -8.99072,10.79101 1.02685,4.10889 0.25586,6.67774 0.25586,6.67774 0,0 2.6582,-5.54688 6.93701,-6.42188 18.50488,-3.78174 27.9292,12.07813 27.9292,12.07813 0,0 -3.47901,-10.54786 -10.86719,-14.12793 -10.54102,-5.10694 -19.65576,-1.6753 -18.62891,-1.6753 1.02784,0 -1.68798,-1.81787 7.14209,-5.32275 3.95166,-1.56983 11.12159,-1.48389 11.12159,-1.48389 0,0 3.59619,1.79785 5.90722,2.56983 2.31299,0.77002 4.625,2.31103 4.625,2.31103"
         style="fill:#231f20;fill-opacity:1;fill-rule:nonzero;stroke:none"
         id="path146" /><path
         d="m 209.28906,-147.40527 c 0,0 7.64844,2.23388 13.22461,8.21679 3.81348,4.09229 5.29883,7.20508 5.29883,7.20508 0,0 -1.53418,-0.4458 -2.125,2 -0.4375,1.81201 -0.125,4.125 -0.125,4.125 0,0 -2.1875,-8.81299 -4.875,-11.75 -8.01855,-8.76465 -11.39844,-9.79687 -11.39844,-9.79687"
         style="fill:#ffffff;fill-opacity:1;fill-rule:nonzero;stroke:none"
         id="path148" /><path
         d="m 182.3125,-186.2334 c 0.43848,0.39111 2.5,1.68799 4.98926,4.74512 1.39551,1.71289 2.19922,3.31787 3.35449,5.25488 0.34961,0.58496 2.0957,4.30518 2.625,5.03125 0.5498,0.75293 2.9707,1.30078 3.65625,1.84375 -0.54004,0.0679 -5.09082,-0.875 -5.84375,-0.875 -1.5625,0 -3.49512,1.06299 -3.81348,1.44678 0.31446,-0.42676 0.55371,-2.521 0.51953,-3.05762 -0.0625,-0.97705 -0.27832,-1.40625 -0.93359,-2.17822 -0.62891,-0.73975 -2.53223,-2.04004 -3.06641,-2.84473 -1.7871,-2.69336 -1.62988,-5.17334 -1.53808,-6.30224 0.0918,-1.125 0.0508,-3.06397 0.0508,-3.06397"
         style="fill:#ffffff;fill-opacity:1;fill-rule:nonzero;stroke:none"
         id="path150" /><path
         d="m 182.3125,-186.2334 c 0.43848,0.39111 2.5,1.68799 4.98926,4.74512 1.39551,1.71289 2.19922,3.31787 3.35449,5.25488 0.34961,0.58496 2.0957,4.30518 2.625,5.03125 0.5498,0.75293 2.9707,1.30078 3.65625,1.84375 -0.54004,0.0679 -5.09082,-0.875 -5.84375,-0.875 -1.5625,0 -3.49512,1.06299 -3.81348,1.44678 0.31446,-0.42676 0.55371,-2.521 0.51953,-3.05762 -0.0625,-0.97705 -0.27832,-1.40625 -0.93359,-2.17822 -0.62891,-0.73975 -2.53223,-2.04004 -3.06641,-2.84473 -1.7871,-2.69336 -1.62988,-5.17334 -1.53808,-6.30224 0.0918,-1.125 0.0508,-3.06397 0.0508,-3.06397 z"
         style="fill:none;stroke:#ffffff;stroke-width:0.5;stroke-linecap:butt;stroke-linejoin:miter;stroke-miterlimit:10;stroke-dasharray:none;stroke-opacity:1"
         id="path152" /><path
         d="m 174.29688,-128.3877 c 0,0 2.36328,1.77295 5.76269,3.10303 3.39941,1.33008 5.52734,2.08203 5.52734,2.08203 0,0 -0.20703,6.56299 2.60059,11.292 2.80762,4.729 7.24121,10.56591 7.24121,10.56591 0,0 -4.21191,-3.84179 -10.12305,-9.53076 -5.91113,-5.69043 -9.35449,-6.0542 -11.00878,-9.01514 -2.80762,-5.02392 0,-8.49707 0,-8.49707"
         style="fill:#ffffff;fill-opacity:1;fill-rule:nonzero;stroke:none"
         id="path154" /><path
         d="m 174.29688,-128.3877 c 0,0 2.36328,1.77295 5.76269,3.10303 3.39941,1.33008 5.52734,2.08203 5.52734,2.08203 0,0 -0.20703,6.56299 2.60059,11.292 2.80762,4.729 7.24121,10.56591 7.24121,10.56591 0,0 -4.21191,-3.84179 -10.12305,-9.53076 -5.91113,-5.69043 -9.35449,-6.0542 -11.00878,-9.01514 -2.80762,-5.02392 0,-8.49707 0,-8.49707 z"
         style="fill:none;stroke:#ffffff;stroke-width:0.5;stroke-linecap:butt;stroke-linejoin:miter;stroke-miterlimit:10;stroke-dasharray:none;stroke-opacity:1"
         id="path156" /><path
         d="m 136.65625,-102.63965 c 0,0 -1.26758,-4.50195 0.21875,-10.68799 2.6875,-11.18701 8.25,-20.71826 8.25,-20.71826 0,0 -5.4375,9.81201 -5.0625,24.93701 0.14355,5.78955 2.90723,6.86084 2.90723,6.86084 0,0 -6.31348,-0.3916 -6.31348,-0.3916 z"
         style="fill:#ffffff;fill-opacity:1;fill-rule:nonzero;stroke:none"
         id="path158" /><path
         d="m 156.04785,-166.12402 c 0,0 2.80469,0.90283 3.2793,2.04297 0.47461,1.14013 0.33203,3.04101 0.33203,3.04101 0,0 0.0479,-0.61816 -1.94824,-1.04492 -1.9961,-0.42822 -3.33594,-0.66895 -3.33594,-0.66895 0,0 1.67285,-3.37011 1.67285,-3.37011 z"
         style="fill:#ba9458;fill-opacity:1;fill-rule:nonzero;stroke:none"
         id="path160" /><path
         d="m 133.82617,-144.18311 c 0,0 3.02637,0.96192 3.50098,2.10206 0.47461,1.14013 0.33203,3.04101 0.33203,3.04101 0,0 0.0479,-0.61816 -1.94824,-1.04492 -1.9961,-0.42822 -4.94434,-0.83496 -4.94434,-0.83496 0,0 3.05957,-3.26319 3.05957,-3.26319 z"
         style="fill:#ba9458;fill-opacity:1;fill-rule:nonzero;stroke:none"
         id="path162" /><path
         d="m 118.89063,-125.12402 c 0,0 1.73583,-0.77491 5.03417,-0.66993 2.87159,0.0918 4.28809,1.54981 4.28809,1.54981 0,0 0.20703,-1.96289 -1.34326,-3.5127 -1.54981,-1.55029 -4.87012,-1.74218 -4.87012,-1.74218 0,0 -1.22705,0.81201 -1.22705,0.81201 0,0 -1.88183,3.56299 -1.88183,3.56299 z"
         style="fill:#ba9458;fill-opacity:1;fill-rule:nonzero;stroke:none"
         id="path164" /></g></g></svg>
