<?xml version="1.0" standalone="yes"?>
<svg xmlns="http://www.w3.org/2000/svg" width="256" height="256">
<path style="fill:#121010; stroke:none;" d="M0 0L0 256L256 256L256 135L241.669 149.795L233.727 155.408L227.703 177.9L221.651 184.398L215 211L192 211L185 241C173.528 241 149.52 245.508 140 239C130.698 241.903 112.339 243.835 103.001 240.283C98.859 238.707 96.2598 232.705 91.8853 232.235C86.4043 231.646 81.1491 239.641 76 241.271C57.5843 247.099 28.3093 240.46 20.3733 220.885C18.9509 217.377 21.2816 212.551 21.8533 209C23.7499 197.22 32.9088 178.703 30.0696 167.003C27.4344 156.144 13.7177 153.641 7.57845 145.969C-5.56055 129.549 5.05244 99.9984 20 88C18.809 78.4456 22.8717 70.0472 32 65.6483C35.2323 64.0906 39.4403 64.8121 42.3927 62.8511C45.7637 60.6122 48.0215 55.4238 50 52C42.124 46.9707 37.6698 45.7036 37 56C16.8728 38.5794 31.2569 18.3586 54 16L54 17C50.5664 19.6111 52.1655 24.5952 56.9552 23.1815C62.0935 21.6649 65.954 14.6031 70.0001 11.287C79.5865 3.43044 86.5346 8.58951 96 13L94 9C103.221 12.6426 103.142 21.9345 105.876 30C108.711 38.3643 107.627 45.5862 109.342 53.9967C109.966 57.053 112.856 60.0314 112.499 63.1964C111.659 70.6515 99.4097 85.6653 93 89C101.961 100.172 116.49 99.4025 118.715 83C119.281 78.8268 116.465 74.9572 115.575 71C114.422 65.868 115 60.2297 115 55C116.855 57.218 118.015 60.3925 120.349 62.1528C126.816 67.0307 135.423 57.7886 141 55L137 42C147.935 51.5766 152.953 45.1413 163 38.2548C166.026 36.1808 170.479 35.1141 172.922 32.3533C175.942 28.9401 176.202 18.4591 182.973 19.9333C190.66 21.607 197.42 38.9181 202.642 44.4978C206.267 48.3698 210.982 50.7282 214.277 55.0112C217.815 59.6108 218.894 65.4117 222.45 69.9999C234.995 86.1844 266.784 111.966 239 131L239 132L256 132L256 0L0 0z"/>
<path style="fill:#c19f69; stroke:none;" d="M54 17L54 16C33.0314 17.0908 13.3514 41.0596 37 56C38.8227 45.938 41.3398 48.0396 50 52C47.4464 55.292 45.184 60.6308 41.6083 62.8511C38.5126 64.7733 34.3243 64.045 31.0001 65.6483C21.9887 69.9944 18.3215 78.6491 20 88C12.4359 92.1903 10.1892 100.393 7.33616 107.997C2.34151 121.308 -3.41177 133.654 7.57845 146.927C13.6775 154.292 27.84 156.922 29.746 168.001C31.7626 179.722 24.0867 196.392 21.9111 208C21.1984 211.803 18.6393 217.061 19.8425 220.885C21.0924 224.858 25.9853 227.952 28.8853 230.698C41.3828 242.532 58.6334 245.672 76 241.539C81.2614 240.286 86.599 232.266 91.8853 232.984C95.8632 233.525 98.207 238.832 102.003 240.283C110.881 243.675 131.355 242.52 140 239L153 241L185 241L192 211L215 211C217.194 202.9 217.846 192.69 221.651 185.212C223.412 181.75 227.037 180.95 228.391 176.958C230.623 170.376 229.974 161.149 234.225 155.408C240.513 146.915 252.41 143.687 256 132L239 132L239 131C251.457 125.014 251.756 110.56 246.962 99C242.185 87.4792 232.134 80.1151 224.135 70.9992C219.881 66.1519 218.668 60.1333 215.011 55.0112C211.63 50.2764 206.441 47.9072 202.642 43.6645C197.636 38.0721 190.695 20.8572 182.973 19.5135C175.588 18.2285 175.934 28.6901 172.273 32.3533C169.813 34.8161 165.887 35.7276 163 37.6433C152.009 44.9375 149.243 50.0701 137 42C136.391 47.3007 137.848 50.767 141 55C135.623 56.9446 127.945 65.4074 122.091 62.6444C118.8 61.0915 117.682 57.2168 115 55C115.084 56.9352 115.168 58.7198 115.769 60.5801C121.062 76.9658 133.949 61.0547 142.941 59.688C148.365 58.8635 156.373 63.1884 162 64L144 52L175 39C175.748 35.8106 177.123 24.1111 182.001 24.867C188.128 25.8165 194.615 42.2207 197.883 46.9694C201.205 51.7981 206.901 53.7408 210.714 58.0706C215.067 63.0154 216.185 69.8614 220.378 75C227.617 83.8711 238.383 90.5826 243.579 101C247.505 108.871 245.411 124.837 234.94 126.784C224.705 128.687 221.559 121.599 213.99 116.942C208.582 113.616 200.239 112.58 194 112C194.183 143.057 225.977 136 248 136C240.49 144.835 214.176 140.037 203 139.999C188.718 139.951 174.267 138.743 160 138.059C129.046 136.576 91.1985 138.216 70 111C56.8633 117.695 57 132.26 57 145L239 145L229.385 152.408L224 177L217 177L210 206C204.614 206 191.984 203.664 187.926 207.717C181.419 214.216 186.309 230.596 178.506 235.85C171.476 240.584 152.392 237 144 237L145 230C133.133 233 117.77 241.235 105 234.85C99.9676 232.334 95.9292 226.929 92 223L91 223C73.3656 236.408 54.6183 244.579 35.9992 228.295C32.6927 225.403 26.4161 221.665 25.9041 216.885C24.6045 204.755 31.9665 188.904 34.3399 177C35.1577 172.898 37.736 168.221 36.2548 164.01C30.2701 146.999 0.809097 147.291 4.22287 124.01C6.02675 111.708 17.0335 100.987 21.9131 90C24.2702 84.6928 22.8518 79.938 27.3468 75.3356C32.608 69.949 39.0453 71.5871 44.2454 67.8504C50.139 63.6154 57.2681 51.9343 62 46C51.8451 48.1268 40.3024 39.5479 33 48C28.777 37.8051 29.8135 25.5629 44 24.4657C49.272 24.0579 53.5672 28.297 59 26.2825C69.3129 22.4585 77.3231 5.40271 89.9726 13.9198C92.9283 15.9099 95.2682 18.7313 98 21L98 17L99 17L102 32C93.3875 26.166 77.8825 21.0848 73 34C84.3949 29.1898 98.4728 28.8998 102 44L101 44C95.1202 29.891 80.5493 32.1793 74.1622 44.3111C67.2067 57.5223 79.2938 81.4556 94 82L88 71L95 77L97 77C104.149 64.7089 107.81 47.2699 102 33C111.889 42.2281 107.282 65.6107 100.729 75C97.099 80.2018 94.9527 85.1942 88 85L96.0905 97.0594L106 120C110.484 110.886 118.312 104.797 129 107C126.325 99.3917 114.149 105.908 108 103C116.224 99.1996 118.713 91.9224 122 84L139 90C137.688 84.053 131.47 85.0486 127.003 82.0795C121.334 78.3105 117.737 72.4595 116 66L115 66C115.169 71.5253 119.112 77.2361 118.604 82.4324C118.013 88.4815 111.243 98.7211 104.196 97.2546C100.02 96.3854 96.0305 91.7539 93 89C98.4479 87.19 100.675 82.4966 103.862 78C106.778 73.8842 111.614 69.0865 112.889 64.1147C113.881 60.2422 110.093 56.6886 109.342 52.9992C107.63 44.5855 108.712 37.3659 105.876 29C103.283 21.3515 103.516 11.3614 94 9L96 13C86.4319 6.72849 77.5377 3.63423 68.0104 12.1532C64.6841 15.1274 60.7974 22.2857 56.0356 22.8705C51.627 23.4119 52.2602 19.172 54 17z"/>
<path style="fill:#927349; stroke:none;" d="M80 11L80 12L86 12L80 11z"/>
<path style="fill:#121010; stroke:none;" d="M33 48C41.6014 39.6247 50.7567 49.1233 62 46C54.5377 52.8153 46.827 59.553 45 70C38.9112 70.0001 33.1496 69.5065 28.211 73.7242C22.6093 78.5082 25.0375 83.3325 22.2307 89C14.3473 104.918 -1.96625 121.022 8.22775 139.989C13.9922 150.715 32.3731 152.138 36.1574 165.003C37.2674 168.777 34.833 173.292 34.1615 177C32.0472 188.678 23.5547 206.12 25.6191 217.804C26.3964 222.203 31.8771 225.575 35 228.295C51.2019 242.402 76.7075 237.928 91 223L92 223C104.73 240.487 128.474 237.381 146 229L144 236L169 236C171.962 236 176.791 236.833 179.286 234.85C184.21 230.938 186.64 211.175 187 205L210 205L216.817 179.216L224.215 173.589L229 149L238 146L111 146L75 146C70.3826 146 63.4954 147.254 59.2159 145.283C55.4633 143.554 55.8318 138.458 56.1253 135C56.9523 125.256 62.2177 116.701 70 111C76.5658 122.853 91.6056 128.78 104 132.405C134.848 141.427 172.076 138.998 204 139C214.351 139.001 224.619 140.001 235 140C239.444 140 244.143 140.862 247 137C237.287 137 227.681 136.003 218 136C213.887 135.999 207.952 137.038 204.266 134.85C197.401 130.775 194.105 119.369 194 112C199.736 112.827 206.819 113.691 211.999 116.385C220.628 120.873 225.415 129.018 236.793 126.473C245.751 124.469 246.49 106.57 243.52 100C238.787 89.5309 227.501 82.729 220.378 74C216.211 68.8928 215.146 61.9651 210.714 57.1452C206.783 52.8713 201.23 50.9484 197.883 45.9888C194.652 41.2028 188.217 25.0094 182.001 24.1296C176.815 23.3957 175.542 35.5974 175 39L145 53L162 64C155.896 62.8793 147.026 59.1129 141 60.3988C131.166 62.4973 127.864 71.7786 117 66C117.303 72.8383 120.703 79.3128 127.003 82.5886C132.477 85.4346 137.661 84.1525 140 91L122.458 85.9026L108 103L132 106C144.239 84.7976 159.137 61.5497 184 54C178.745 44.7283 177.97 36.865 182 27L183 27C186.536 41.2711 197.486 49.9321 206.706 60.1426C209.57 63.3146 210.334 67.5425 212.726 70.9992C216.259 76.1036 221.6 79.7269 225.997 84.0271C234.836 92.673 246.501 104.426 240.798 117.913C233.887 134.255 219.89 113.651 212 111.474C205.117 109.575 197.8 110.339 191 108.047C172.299 101.743 172.626 84.9325 177 69C160.478 81.9074 171.392 108.988 175 126L176 126L176 104C191.423 110.03 190.354 123.05 199 136C183.951 136 169.018 135 154 135C149.71 135 140.921 136.664 138.721 131.784C133.722 120.697 145.926 104.52 148 94L147 94C139.754 105.926 133.255 119.942 132 134L122 133C122.606 127.109 130.933 114.46 128.583 109.412C127.192 106.424 122.579 107.058 120 107.494C110.906 109.03 107.409 114.552 105 123L104 123C103.948 114.892 100.391 102.939 96.2108 96.1147C93.6211 91.8872 89.5968 89.9485 88 85C96.1032 86.0759 107.732 70.9237 108.165 63C108.393 58.8444 105.168 55.3032 105.267 51C105.411 44.7422 108.187 37.0554 102 33C106.258 44.6881 106.612 61.7464 99.4324 72.0001C97.1786 75.219 93.9804 83.1105 88.9695 81.3718C77.6213 77.4342 64.7242 49.4826 78 42C81.1337 28.8045 94.1498 34.0908 100 42L101 42C98.1167 26.8566 80.3362 28.525 71 36C79.9568 22.0512 89.3312 25.9164 102 32L99 17L98 17L98 21C96.0751 18.8179 94.2208 16.4039 91.8799 14.6429C77.5346 3.85124 68.5486 23.6586 57 27.0585C52.4238 28.4057 46.9852 24.6604 42 25.1303C29.5808 26.3008 28.0698 38.8843 33 48z"/>
<path style="fill:#927349; stroke:none;" d="M47 17L48 18L47 17M61 19L62 20L61 19M42 24L42 25L49 25L42 24M83 25L83 26L87 26L83 25M102 25L102 30L103 30L102 25M52 27L52 28L58 28L52 27z"/>
<path style="fill:#c19f69; stroke:none;" d="M182 27C176.787 36.6388 178.407 47.3529 186 55C159.332 55.4221 140.628 88.203 130.249 109C126.663 116.185 122.831 123.932 122 132L132 133C135.458 115.34 144.378 101.887 152 86L153 86L138.929 121L139.717 133.84L155 134.941L199 136C192.934 123.524 189.898 108.683 176 104L177 129L176 129C171.716 108.66 160.946 86.2286 177 69C173.89 82.4429 171.515 100.407 187 106.714C194.777 109.881 203.983 109.129 212 111.756C218.979 114.044 231.814 131.898 239.854 119.594C246.972 108.702 238.74 96.995 231.692 89C214.089 69.0323 193.607 51.378 182 27z"/>
<path style="fill:#927349; stroke:none;" d="M183 28L183 32L184 32L183 28M72 33L71 36L72 33M86 33L86 34L91 34L86 33M29 34L29 40L30 40L29 34M78 38L78 41L79 41L78 38M104 38L104 45L105 45L104 38M106 39L106 45L107 45L106 39M101 40L101 44L102 44L101 40M159 40L160 41L159 40M190 40L191 41L190 40M37 42L37 43L41 43L37 42z"/>
<path style="fill:#c19f69; stroke:none;" d="M70 47L69 55L70 55L70 47z"/>
<path style="fill:#927349; stroke:none;" d="M103 48L103 58L104 58L103 48M105 48L105 56L106 56L105 48z"/>
<path style="fill:#121010; stroke:none;" d="M103 62C101.705 59.7822 92.1284 45.2516 89.562 53.2739C87.9419 58.3382 99.7127 61.3471 103 62z"/>
<path style="fill:#927349; stroke:none;" d="M62.6667 51.3333L63.3333 51.6667L62.6667 51.3333M73 51L73 61L74 61L73 51z"/>
<path style="fill:#c19f69; stroke:none;" d="M55 75C45.6376 71.9933 36.0867 70.4745 29 79C36.9399 77.6043 44.8864 79.3867 50.7756 85.2276C57.5025 91.8995 57.7677 100.969 69 97L66 107L101 126C100.993 114.841 97.3456 105.895 86 102L86 101L95 100L73 70C67.7215 78.2913 68.5347 84.7853 70 94C61.028 83.5926 68.4159 76.4681 68.7024 65C68.8186 60.3482 65.7709 56.1387 64 52C53.4029 55.4072 51.6585 65.6171 55 75z"/>
<path style="fill:#927349; stroke:none;" d="M144 54L152 53L144 54M196 52L197 53L196 52M181 54L181 55L186 53L181 54M92.6667 58.3333L93.3333 58.6667L92.6667 58.3333M67 59L68 60L67 59M94.6667 59.3333L95.3333 59.6667L94.6667 59.3333M101 59L102 60L101 59M141 59L141 60L147 60L141 59M96.6667 60.3333L97.3333 60.6667L96.6667 60.3333M104 60L105 61L104 60M115 61L116 69L117 69L117 61L115 61M148.667 61.3333L149.333 61.6667L148.667 61.3333M152 62L152 63L155 63L152 62M52 63L52 69L53 69L52 63z"/>
<path style="fill:#121010; stroke:none;" d="M92 64L98 71L99 70L99 68L92 64z"/>
<path style="fill:#927349; stroke:none;" d="M103 66L104 67L103 66M68.3333 67.6667L68.6667 68.3333L68.3333 67.6667M128.667 67.3333L129.333 67.6667L128.667 67.3333M120 68L120 69L126 69L120 68z"/>
<path style="fill:#121010; stroke:none;" d="M197 68C198.29 73.5205 201.368 76.926 207 78L208 71L197 68z"/>
<path style="fill:#927349; stroke:none;" d="M35 69L35 70L45 70L35 69z"/>
<path style="fill:#121010; stroke:none;" d="M88 71L94 78L95 77L95 75L88 71z"/>
<path style="fill:#927349; stroke:none;" d="M38 72L38 73L42 73L38 72M175 73L174 92L175 92L175 73M207 73L207 77L208 77L207 73M105 75L106 76L105 75M65 76L65 89L66 89L65 76M92 78L92 79L96 77L92 78M31 78L31 79L38 79L31 78M68 78L68 82L69 82L68 78M118 79L119 80L118 79M84 82L84 87L85 87L84 82M89 82L89 83L93 83L89 82M167 83L167 89L168 89L167 83z"/>
<path style="fill:#c19f69; stroke:none;" d="M17 114C21.6162 113.371 26.3109 111.866 31 112.234C36.5048 112.665 42.4796 115.437 47.972 113.283C68.3324 105.296 46.2213 73.3711 29.0105 88.2382C25.5277 91.2467 22.5012 94.9163 20.3654 99C17.9465 103.625 17.27 108.854 17 114z"/>
<path style="fill:#927349; stroke:none;" d="M39 84L39 85L44 85L39 84M122.667 84.3333L123.333 84.6667L122.667 84.3333M131 84L131 85L136 85L131 84M23 85L23 89L24 89L23 85M152 86L151 90L152 90L152 86M48 87L49 88L48 87M139 87L138 91L139 87M116 88L117 89L116 88z"/>
<path style="fill:#121010; stroke:none;" d="M150 89L149 92L150 89z"/>
<path style="fill:#927349; stroke:none;" d="M66 90L67 91L66 90M87 91L88 92L87 91M56 92L56 100L57 100L56 92M88 92L89 93L88 92M148 92L148 95L149 95L150 92L148 92M89 93L90 94L89 93M95.3333 98.6667L95.6667 99.3333L95.3333 98.6667M86 101L86 102L92 102L86 101M96.3333 101.667L96.6667 102.333L96.3333 101.667M122 102L122 103L125 103L122 102z"/>
<path style="fill:#121010; stroke:none;" d="M239 111L237 102C229.417 103.609 232.777 110.344 239 111z"/>
<path style="fill:#927349; stroke:none;" d="M65 103L67 108L65 103M236 104L236 108L237 108L236 104M17 105L17 109L18 109L17 105M129 105L129 109L132 106L129 105M170 105L170 109L171 109L170 105M245 105L245 111L246 111L245 105M121 106L121 107L128 107L121 106M181.667 106.333L182.333 106.667L181.667 106.333z"/>
<path style="fill:#121010; stroke:none;" d="M104 107L106 112L108 109L104 107z"/>
<path style="fill:#927349; stroke:none;" d="M183.667 107.333L184.333 107.667L183.667 107.333M185.667 108.333L186.333 108.667L185.667 108.333M191 108L191 109L196 109L191 108M187.667 109.333L188.333 109.667L187.667 109.333M197 109L197 110L202 110L197 109M141.333 110.667L141.667 111.333L141.333 110.667M98 111L99 112L98 111M171 111L171 115L172 115L171 111M175 111L175 122L176 122L175 111M241 112L241 117L242 117L241 112M244 112L244 119L245 119L244 112M40 114L40 115L56 115L40 114M23 115L23 116L38 117L23 115z"/>
<path style="fill:#c19f69; stroke:none;" d="M34 145L52 145L58 116C37.985 110.596 34 130.048 34 145z"/>
<path style="fill:#927349; stroke:none;" d="M57 115L58 118L59 118L59 115L57 115M189.333 115.667L189.667 116.333L189.333 115.667z"/>
<path style="fill:#c19f69; stroke:none;" d="M31 145C27.0847 134.005 31.2806 125.44 37 116C30.1011 116 21.7611 114.646 16.1011 119.462C1.49476 131.889 17.874 144.998 31 145z"/>
<path style="fill:#927349; stroke:none;" d="M62 117L63 118L62 117M57 118L58 119L57 118M76 118L77 119L76 118M104 118L104 123L105 123L104 118M135.333 118.667L135.667 119.333L135.333 118.667z"/>
<path style="fill:#121010; stroke:none;" d="M198 118C205.116 129.664 208.627 131 222 131C214.434 123.837 208.891 118.155 198 118z"/>
<path style="fill:#927349; stroke:none;" d="M190 119L190 122L191 122L190 119M4 120L4 131L5 131L4 120M238.667 121.333L239.333 121.667L238.667 121.333M55.3333 122.667L55.6667 123.333L55.3333 122.667M226 123L226 124L237 124L226 123M58.3333 124.667L58.6667 125.333L58.3333 124.667M84.6667 124.333L85.3333 124.667L84.6667 124.333M11 125L11 129L12 129L11 125M176 125L176 129L177 129L176 125M224 126L224 127L234 127L224 126M97.6667 130.333L98.3333 130.667L97.6667 130.333M33 131L33 144L34 144L33 131M56 131L56 145L57 145L56 131M99.6667 131.333L100.333 131.667L99.6667 131.333z"/>
<path style="fill:#121010; stroke:none;" d="M234 131L234 132L237 132L234 131z"/>
<path style="fill:#927349; stroke:none;" d="M29 132L29 142L30 142L29 132M122 132L122 133L132 134L122 132M111 134L111 135L114 135L111 134M145 134L145 135L151 135L145 134M170 135L170 136L197 136L170 135M203 135L203 136L209 136L203 135M127 136L127 137L130 137L127 136M228 136L228 137L248 138C243.909 133.948 233.499 136 228 136M140 137L140 138L150 138L140 137M164 138L164 139L180 139L164 138M194 139L194 140L216 140L194 139M240 140L240 141L244 141L240 140M52 143L34 145L34 146C37.3375 146 53.7875 147.742 52 143M22 145L22 146L31 146L22 145M57 145L57 146L178 146C197.354 146 220.108 142.738 239 147L226 145L192 145L57 145M17 148L17 149L21 149L17 148M229 151L236 150L229 151M40 156C46.9668 154.428 59.9098 152.837 66 157C67.4582 153.132 42.8561 152.088 40 156z"/>
<path style="fill:#c19f69; stroke:none;" d="M41 155C47.5999 166.418 40.101 186.644 37.2263 199C36.0795 203.929 32.8819 211.768 35.2644 216.695C44.1018 234.969 76.2311 228.677 86.3099 215.541C90.1736 210.505 90.3608 202.039 91.4814 196C94.008 182.384 96.2899 168.349 100 155L74 155C83.8498 170.925 70.5692 196.016 69 214L71 214C73.3261 196.264 84.0449 173.638 81 156L97 156C94.9963 161.602 90.2163 160.996 85 161C79.574 178.378 73.5286 200.833 73 219L54 219L66 155L41 155z"/>
<path style="fill:#927349; stroke:none;" d="M120 156L120 157L144 157C136.927 154.337 127.314 154.35 120 156z"/>
<path style="fill:#c19f69; stroke:none;" d="M135 155L135 156C140.621 156.048 143.779 157.214 148 161C139.998 161 129.585 159.249 122 162.058C103.619 168.864 104.047 198.275 101 215L99 215L103.695 187L108.122 168.368L122 158L122 157C102.322 161.316 101.272 183.09 98.9351 200C97.8863 207.589 94.1386 213.496 100.101 219.985C110.652 231.469 137.546 227.797 147.293 216.341C150.932 212.063 151.704 202.44 152 197L143 197L143 201L137 201C134.027 217.075 130.916 219 115 219C116.528 203.855 129.65 180.299 118 168L139 168L137 181C151.61 181 156.841 180.822 159 165C150.044 158.486 146.382 155 135 155M164 155C169.218 163.377 166.028 170.925 163.918 180C160.498 194.714 156.968 209.998 155 225L174 225C174.686 218.211 176.673 200.48 181.689 195.717C190.434 187.415 204.429 201.631 205 183L184 183C184.337 176.463 184.595 173.134 180 168C193.843 168 218.463 174.462 219 156L216 156C213.996 161.603 209.237 160.998 204 161L174 161C170.011 175.838 168.258 191.195 164.223 206C162.655 211.756 163.422 218.345 158 222L167.567 176L169 156L191 156L164 155z"/>
<path style="fill:#927349; stroke:none;" d="M169 158C183.99 154.619 204.705 155.547 220 157C213.205 150.269 190.037 155.989 181 156C177.009 156.005 171.994 155.035 169 158M46 158C51.1808 156.831 57.4351 155.88 62 159C63.756 154.342 48.1502 155.055 46 158M81 156L81 157L96 157L96 160L84 160L84 164L85 164L85 161C90.1738 160.999 95.7086 162.088 97 156L81 156z"/>
<path style="fill:#121010; stroke:none;" d="M47 157L37 214L40 214L50 160L62 160L62 157L47 157M81 157L71 215L55 215L55 218L73 218L84 160L96 160L96 157L81 157M98 214C102.113 213.119 101.948 207.687 102.861 204C105.438 193.594 105.453 180.777 110.25 171.083C116.66 158.131 135.356 160 147 160C142.832 156.112 137.404 156.993 132 157C102.519 157.038 101.267 191.368 98 214M170 157C171.79 177.208 161.668 202.021 158 222C163.058 220.52 163.049 211.626 164.125 207C167.604 192.045 172.791 175.234 174 160L216 160L216 157L170 157z"/>
<path style="fill:#927349; stroke:none;" d="M50 160L50 164L51 164L50 160M124 160L124 161L148 161L124 160M174 160L174 161L215 161C203.679 156.769 186.091 160 174 160M46 162L46 166L47 166L46 162M226 162L226 166L227 166L226 162M78 163L78 168L79 168L78 163M43 165L43 169L44 169L43 165M141 167L141 168L145 169L141 167z"/>
<path style="fill:#121010; stroke:none;" d="M141 168L140 178L142 178L144 168L141 168z"/>
<path style="fill:#927349; stroke:none;" d="M82 169L82 173L83 173L82 169M104 170L104 175L105 175L104 170M143 170L143 174L144 174L143 170M171 170L171 174L172 174L171 170M165 171L165 175L166 175L165 171M47 174L46 181L47 181L47 174M62 174L62 179L63 179L62 174M78 174L78 178L79 178L78 174M142 174L142 178L143 178L142 174M139 176L142 179L142 178L139 176M217 176L217 177L224 177L217 176M75 177L75 181L76 181L75 177M184 177L184 183L205 185L206 185C204.824 179.514 189.88 182 185 182L184 177M216 178L216 182L217 182L216 178M94 179L94 183L95 183L94 179M155.333 179.667L155.667 180.333L155.333 179.667M40 180L40 184L41 184L40 180M107 180L107 185L108 185L107 180M137 181L137 182L155 182L137 181M93 183L93 187L94 187L93 183M79 184L78 191L79 191L79 184M168 184L168 189L169 189L168 184z"/>
<path style="fill:#121010; stroke:none;" d="M182 184L182 187L202 187L202 184L182 184z"/>
<path style="fill:#927349; stroke:none;" d="M101 185L101 190L102 190L101 185M162 186L162 191L163 191L162 186M182 187L182 188L201 188L182 187M59 189L59 194L60 194L59 189M213 190L213 194L214 194L213 190M30 192L30 196L31 196L30 192M43 192L43 196L44 196L43 192M72 192L72 196L73 196L72 192M203 192L180 197C184.616 195.959 203.82 198.266 203 192M104 194L104 198L105 198L104 194M37 195L37 199L38 199L37 195M91 195L91 200L92 200L91 195M133 196L133 197L152 199C153.784 194.268 136.424 196 133 196z"/>
<path style="fill:#c19f69; stroke:none;" d="M133 197L130 214L132 214L135 197L133 197z"/>
<path style="fill:#121010; stroke:none;" d="M132 215L115 215L115 218L134 218L136 201L143 201L143 198C132.44 198.09 132.474 205.946 132 215z"/>
<path style="fill:#927349; stroke:none;" d="M165 198L165 203L166 203L165 198M23 200L24 201L23 200M98 200L98 204L99 204L98 200M159 200L158 208L159 208L159 200M136 201L136 205L137 205L136 201M217 201L218 202L217 201M75 202L75 207L76 207L75 202M72 203L72 207L73 207L72 203M22 204L23 205L22 204M187 207L210 206C204.908 204.097 191.02 203.018 187 207M69 206L69 210L70 210L69 206M130 206L130 210L131 210L130 206M40 207L40 211L41 211L40 207M55 208L55 215L71 215L71 214L69 210L68 210L56 212L55 208M101 209L101 213L102 213L101 209M34 210L34 214L35 214L34 210M115 214L115 215L132 215L132 214L130 212L115 214M162 213L162 217L163 217L162 213M99.6667 214.333L100.333 214.667L99.6667 214.333M54 215L54 219L73 219L73 218C66.6919 218 58.9834 219.52 54 215M158 216L158 220L159 220L158 216M184 216L184 220L185 220L184 216M115 218L115 219L133 219L115 218M155 218L155 222L156 222L155 218M174 220L174 224L175 224L174 220M155 225L155 226L174 226L155 225M107 226L107 227L132 227L107 226M46 227L46 228L72 228L46 227M181 228L181 232L182 232L181 228M144 229L145 232L146 232L146 229L144 229M104 235L104 236L134 236L104 235M44 236L44 237L74 237L44 236M144 236L144 237L180 237L144 236z"/>
</svg>
